<mxfile host="app.diagrams.net" modified="2022-04-17T20:46:07.176Z" agent="5.0 (Windows)" etag="ILV59JvfmHOGhFgP27Xz" version="17.4.5" type="github">
  <diagram id="3-r2Yq1EkMLdfT2Eu1Ij" name="Page-1">
    <mxGraphModel dx="916" dy="744" grid="1" gridSize="10" guides="1" tooltips="1" connect="1" arrows="1" fold="1" page="1" pageScale="1" pageWidth="827" pageHeight="1169" math="0" shadow="0">
      <root>
        <mxCell id="0" />
        <mxCell id="1" parent="0" />
        <mxCell id="QgcJuCtuCY2u2TaKuLJd-7" style="edgeStyle=orthogonalEdgeStyle;rounded=0;orthogonalLoop=1;jettySize=auto;html=1;entryX=0;entryY=0.5;entryDx=0;entryDy=0;endArrow=none;endFill=0;" parent="1" source="QgcJuCtuCY2u2TaKuLJd-3" target="QgcJuCtuCY2u2TaKuLJd-6" edge="1">
          <mxGeometry relative="1" as="geometry" />
        </mxCell>
        <mxCell id="QgcJuCtuCY2u2TaKuLJd-3" value="&lt;div&gt;Bedroom&lt;/div&gt;&lt;div&gt;Items: Map Home&lt;br&gt;&lt;/div&gt;&lt;div&gt;Respawn point&lt;br&gt;&lt;/div&gt;" style="rounded=0;whiteSpace=wrap;html=1;" parent="1" vertex="1">
          <mxGeometry x="40" y="240" width="120" height="60" as="geometry" />
        </mxCell>
        <mxCell id="QgcJuCtuCY2u2TaKuLJd-4" value="&lt;div&gt;Kitchen&lt;/div&gt;&lt;div&gt;NPC: Zombie wife&lt;br&gt;&lt;/div&gt;" style="rounded=0;whiteSpace=wrap;html=1;" parent="1" vertex="1">
          <mxGeometry x="200" y="40" width="120" height="60" as="geometry" />
        </mxCell>
        <mxCell id="QgcJuCtuCY2u2TaKuLJd-9" style="edgeStyle=orthogonalEdgeStyle;rounded=0;orthogonalLoop=1;jettySize=auto;html=1;entryX=0.5;entryY=1;entryDx=0;entryDy=0;endArrow=none;endFill=0;" parent="1" source="QgcJuCtuCY2u2TaKuLJd-5" target="QgcJuCtuCY2u2TaKuLJd-4" edge="1">
          <mxGeometry relative="1" as="geometry" />
        </mxCell>
        <mxCell id="QgcJuCtuCY2u2TaKuLJd-5" value="&lt;div&gt;Lounge&lt;/div&gt;&lt;div&gt;Items: Lockpicker&lt;br&gt;&lt;/div&gt;" style="rounded=0;whiteSpace=wrap;html=1;" parent="1" vertex="1">
          <mxGeometry x="200" y="140" width="120" height="60" as="geometry" />
        </mxCell>
        <mxCell id="QgcJuCtuCY2u2TaKuLJd-8" style="edgeStyle=orthogonalEdgeStyle;rounded=0;orthogonalLoop=1;jettySize=auto;html=1;entryX=0.5;entryY=1;entryDx=0;entryDy=0;endArrow=none;endFill=0;" parent="1" source="QgcJuCtuCY2u2TaKuLJd-6" target="QgcJuCtuCY2u2TaKuLJd-5" edge="1">
          <mxGeometry relative="1" as="geometry" />
        </mxCell>
        <mxCell id="QgcJuCtuCY2u2TaKuLJd-11" style="edgeStyle=orthogonalEdgeStyle;rounded=0;orthogonalLoop=1;jettySize=auto;html=1;entryX=0.5;entryY=0;entryDx=0;entryDy=0;endArrow=none;endFill=0;" parent="1" source="QgcJuCtuCY2u2TaKuLJd-6" target="QgcJuCtuCY2u2TaKuLJd-10" edge="1">
          <mxGeometry relative="1" as="geometry">
            <Array as="points">
              <mxPoint x="260" y="340" />
              <mxPoint x="260" y="340" />
            </Array>
          </mxGeometry>
        </mxCell>
        <mxCell id="QgcJuCtuCY2u2TaKuLJd-13" style="edgeStyle=orthogonalEdgeStyle;rounded=0;orthogonalLoop=1;jettySize=auto;html=1;entryX=0;entryY=0.5;entryDx=0;entryDy=0;endArrow=none;endFill=0;" parent="1" source="QgcJuCtuCY2u2TaKuLJd-6" target="QgcJuCtuCY2u2TaKuLJd-12" edge="1">
          <mxGeometry relative="1" as="geometry" />
        </mxCell>
        <mxCell id="QgcJuCtuCY2u2TaKuLJd-6" value="Corridor" style="rounded=0;whiteSpace=wrap;html=1;" parent="1" vertex="1">
          <mxGeometry x="200" y="240" width="120" height="60" as="geometry" />
        </mxCell>
        <mxCell id="QgcJuCtuCY2u2TaKuLJd-10" value="&lt;div&gt;Living room&lt;/div&gt;&lt;div&gt;Items: Key home&lt;br&gt;&lt;/div&gt;" style="rounded=0;whiteSpace=wrap;html=1;" parent="1" vertex="1">
          <mxGeometry x="200" y="340" width="120" height="60" as="geometry" />
        </mxCell>
        <mxCell id="QgcJuCtuCY2u2TaKuLJd-15" style="edgeStyle=orthogonalEdgeStyle;rounded=0;orthogonalLoop=1;jettySize=auto;html=1;entryX=0.5;entryY=1;entryDx=0;entryDy=0;endArrow=none;endFill=0;" parent="1" source="QgcJuCtuCY2u2TaKuLJd-12" target="QgcJuCtuCY2u2TaKuLJd-14" edge="1">
          <mxGeometry relative="1" as="geometry" />
        </mxCell>
        <mxCell id="QgcJuCtuCY2u2TaKuLJd-17" style="edgeStyle=orthogonalEdgeStyle;rounded=0;orthogonalLoop=1;jettySize=auto;html=1;entryX=0.5;entryY=0;entryDx=0;entryDy=0;endArrow=none;endFill=0;" parent="1" source="QgcJuCtuCY2u2TaKuLJd-12" target="QgcJuCtuCY2u2TaKuLJd-16" edge="1">
          <mxGeometry relative="1" as="geometry" />
        </mxCell>
        <mxCell id="QgcJuCtuCY2u2TaKuLJd-19" style="edgeStyle=orthogonalEdgeStyle;rounded=0;orthogonalLoop=1;jettySize=auto;html=1;entryX=0;entryY=0.5;entryDx=0;entryDy=0;endArrow=none;endFill=0;" parent="1" source="QgcJuCtuCY2u2TaKuLJd-12" target="QgcJuCtuCY2u2TaKuLJd-18" edge="1">
          <mxGeometry relative="1" as="geometry" />
        </mxCell>
        <mxCell id="QgcJuCtuCY2u2TaKuLJd-12" value="&lt;div&gt;Front yard&lt;/div&gt;&lt;div&gt;Lock: Key home&lt;/div&gt;Respawn point" style="rounded=0;whiteSpace=wrap;html=1;" parent="1" vertex="1">
          <mxGeometry x="440" y="240" width="120" height="60" as="geometry" />
        </mxCell>
        <mxCell id="QgcJuCtuCY2u2TaKuLJd-14" value="&lt;div&gt;Garage&lt;/div&gt;&lt;div&gt;Lock: Lockpicker&lt;br&gt;&lt;/div&gt;&lt;div&gt;Items: Pistol&lt;br&gt;&lt;/div&gt;&lt;div&gt;Buy: Armor (10)&lt;br&gt;&lt;/div&gt;" style="rounded=0;whiteSpace=wrap;html=1;" parent="1" vertex="1">
          <mxGeometry x="440" y="140" width="120" height="60" as="geometry" />
        </mxCell>
        <mxCell id="QgcJuCtuCY2u2TaKuLJd-16" value="Gravestone" style="rounded=0;whiteSpace=wrap;html=1;" parent="1" vertex="1">
          <mxGeometry x="440" y="340" width="120" height="60" as="geometry" />
        </mxCell>
        <mxCell id="QgcJuCtuCY2u2TaKuLJd-21" style="edgeStyle=orthogonalEdgeStyle;rounded=0;orthogonalLoop=1;jettySize=auto;html=1;entryX=0.5;entryY=1;entryDx=0;entryDy=0;endArrow=none;endFill=0;" parent="1" source="QgcJuCtuCY2u2TaKuLJd-18" target="QgcJuCtuCY2u2TaKuLJd-20" edge="1">
          <mxGeometry relative="1" as="geometry" />
        </mxCell>
        <mxCell id="uyamcqGPg6rspYpmBii--2" style="edgeStyle=orthogonalEdgeStyle;rounded=0;orthogonalLoop=1;jettySize=auto;html=1;entryX=1;entryY=0.5;entryDx=0;entryDy=0;endArrow=none;endFill=0;" parent="1" source="QgcJuCtuCY2u2TaKuLJd-18" target="uyamcqGPg6rspYpmBii--1" edge="1">
          <mxGeometry relative="1" as="geometry" />
        </mxCell>
        <mxCell id="uyamcqGPg6rspYpmBii--5" style="edgeStyle=orthogonalEdgeStyle;rounded=0;orthogonalLoop=1;jettySize=auto;html=1;entryX=0.5;entryY=1;entryDx=0;entryDy=0;endArrow=none;endFill=0;" parent="1" source="QgcJuCtuCY2u2TaKuLJd-18" target="uyamcqGPg6rspYpmBii--4" edge="1">
          <mxGeometry relative="1" as="geometry" />
        </mxCell>
        <mxCell id="uyamcqGPg6rspYpmBii--6" style="edgeStyle=orthogonalEdgeStyle;rounded=0;orthogonalLoop=1;jettySize=auto;html=1;entryX=0;entryY=0.5;entryDx=0;entryDy=0;endArrow=none;endFill=0;" parent="1" source="QgcJuCtuCY2u2TaKuLJd-18" target="uyamcqGPg6rspYpmBii--3" edge="1">
          <mxGeometry relative="1" as="geometry" />
        </mxCell>
        <mxCell id="T5PmmsMg059Y0qM3ibLW-8" style="edgeStyle=orthogonalEdgeStyle;rounded=0;orthogonalLoop=1;jettySize=auto;html=1;entryX=0.5;entryY=0;entryDx=0;entryDy=0;endArrow=none;endFill=0;" edge="1" parent="1" source="QgcJuCtuCY2u2TaKuLJd-18" target="T5PmmsMg059Y0qM3ibLW-7">
          <mxGeometry relative="1" as="geometry" />
        </mxCell>
        <mxCell id="QgcJuCtuCY2u2TaKuLJd-18" value="&lt;div&gt;Canal street&lt;br&gt;&lt;/div&gt;NPC: Zombie" style="rounded=0;whiteSpace=wrap;html=1;" parent="1" vertex="1">
          <mxGeometry x="760" y="240" width="120" height="60" as="geometry" />
        </mxCell>
        <mxCell id="QgcJuCtuCY2u2TaKuLJd-20" value="&lt;div&gt;Neighbor Joe&lt;br&gt;&lt;/div&gt;Items: Map street" style="rounded=0;whiteSpace=wrap;html=1;" parent="1" vertex="1">
          <mxGeometry x="680" y="140" width="120" height="60" as="geometry" />
        </mxCell>
        <mxCell id="uyamcqGPg6rspYpmBii--1" value="&lt;div&gt;Princess Mgadalena Garden&lt;/div&gt;&lt;div&gt;NPC: Armored zombie&lt;br&gt;&lt;/div&gt;" style="rounded=0;whiteSpace=wrap;html=1;" parent="1" vertex="1">
          <mxGeometry x="660" y="340" width="120" height="60" as="geometry" />
        </mxCell>
        <mxCell id="1R7nhX6g1NE3NOyLdp_M-2" style="edgeStyle=orthogonalEdgeStyle;rounded=0;orthogonalLoop=1;jettySize=auto;html=1;entryX=0;entryY=0.5;entryDx=0;entryDy=0;endArrow=none;endFill=0;" parent="1" source="uyamcqGPg6rspYpmBii--3" target="1R7nhX6g1NE3NOyLdp_M-1" edge="1">
          <mxGeometry relative="1" as="geometry" />
        </mxCell>
        <mxCell id="T5PmmsMg059Y0qM3ibLW-2" style="edgeStyle=orthogonalEdgeStyle;rounded=0;orthogonalLoop=1;jettySize=auto;html=1;entryX=0.5;entryY=1;entryDx=0;entryDy=0;endArrow=none;endFill=0;" edge="1" parent="1" source="uyamcqGPg6rspYpmBii--3" target="T5PmmsMg059Y0qM3ibLW-1">
          <mxGeometry relative="1" as="geometry" />
        </mxCell>
        <mxCell id="T5PmmsMg059Y0qM3ibLW-4" style="edgeStyle=orthogonalEdgeStyle;rounded=0;orthogonalLoop=1;jettySize=auto;html=1;entryX=0.5;entryY=1;entryDx=0;entryDy=0;endArrow=none;endFill=0;" edge="1" parent="1" source="uyamcqGPg6rspYpmBii--3" target="T5PmmsMg059Y0qM3ibLW-3">
          <mxGeometry relative="1" as="geometry" />
        </mxCell>
        <mxCell id="T5PmmsMg059Y0qM3ibLW-6" style="edgeStyle=orthogonalEdgeStyle;rounded=0;orthogonalLoop=1;jettySize=auto;html=1;entryX=0.5;entryY=0;entryDx=0;entryDy=0;endArrow=none;endFill=0;" edge="1" parent="1" source="uyamcqGPg6rspYpmBii--3" target="T5PmmsMg059Y0qM3ibLW-5">
          <mxGeometry relative="1" as="geometry" />
        </mxCell>
        <mxCell id="uyamcqGPg6rspYpmBii--3" value="&lt;div&gt;&lt;span itemprop=&quot;text&quot;&gt;Montana avenue&lt;/span&gt;&lt;/div&gt;NPC: Zombie" style="rounded=0;whiteSpace=wrap;html=1;" parent="1" vertex="1">
          <mxGeometry x="1080" y="240" width="120" height="60" as="geometry" />
        </mxCell>
        <mxCell id="uyamcqGPg6rspYpmBii--4" value="&lt;div&gt;Creepy neighbor&lt;/div&gt;&lt;div&gt;NPC: Creapy zombie neighbor&lt;/div&gt;" style="rounded=0;whiteSpace=wrap;html=1;" parent="1" vertex="1">
          <mxGeometry x="840" y="140" width="120" height="60" as="geometry" />
        </mxCell>
        <mxCell id="1R7nhX6g1NE3NOyLdp_M-1" value="&lt;div&gt;Hairy barber&lt;/div&gt;&lt;div&gt;Lock: Lockpicker&lt;br&gt;&lt;/div&gt;&lt;div&gt;Items: Scissors&lt;/div&gt;&lt;div&gt;Ally&lt;br&gt;&lt;/div&gt;&lt;div&gt;Respawn point&lt;br&gt;&lt;/div&gt;" style="rounded=0;whiteSpace=wrap;html=1;" parent="1" vertex="1">
          <mxGeometry x="1181" y="335" width="120" height="70" as="geometry" />
        </mxCell>
        <mxCell id="T5PmmsMg059Y0qM3ibLW-15" style="edgeStyle=orthogonalEdgeStyle;rounded=0;orthogonalLoop=1;jettySize=auto;html=1;entryX=0;entryY=0.5;entryDx=0;entryDy=0;endArrow=none;endFill=0;exitX=1;exitY=0.5;exitDx=0;exitDy=0;" edge="1" parent="1" source="1R7nhX6g1NE3NOyLdp_M-1" target="T5PmmsMg059Y0qM3ibLW-14">
          <mxGeometry relative="1" as="geometry" />
        </mxCell>
        <mxCell id="T5PmmsMg059Y0qM3ibLW-1" value="&lt;div&gt;REWE to go&lt;/div&gt;Items: Various food (regains health)" style="rounded=0;whiteSpace=wrap;html=1;" vertex="1" parent="1">
          <mxGeometry x="1000" y="140" width="120" height="60" as="geometry" />
        </mxCell>
        <mxCell id="T5PmmsMg059Y0qM3ibLW-17" style="edgeStyle=none;rounded=0;orthogonalLoop=1;jettySize=auto;html=1;entryX=0.5;entryY=1;entryDx=0;entryDy=0;endArrow=none;endFill=0;" edge="1" parent="1" source="T5PmmsMg059Y0qM3ibLW-3" target="T5PmmsMg059Y0qM3ibLW-16">
          <mxGeometry relative="1" as="geometry" />
        </mxCell>
        <mxCell id="T5PmmsMg059Y0qM3ibLW-19" style="edgeStyle=orthogonalEdgeStyle;rounded=0;orthogonalLoop=1;jettySize=auto;html=1;entryX=0;entryY=0.5;entryDx=0;entryDy=0;endArrow=none;endFill=0;" edge="1" parent="1" source="T5PmmsMg059Y0qM3ibLW-3" target="T5PmmsMg059Y0qM3ibLW-18">
          <mxGeometry relative="1" as="geometry" />
        </mxCell>
        <mxCell id="T5PmmsMg059Y0qM3ibLW-3" value="&lt;div&gt;Cathetral&lt;/div&gt;&lt;div&gt;NPC: Priest&lt;/div&gt;&lt;div&gt;Items&lt;br&gt;&lt;/div&gt;" style="rounded=0;whiteSpace=wrap;html=1;" vertex="1" parent="1">
          <mxGeometry x="1160" y="140" width="120" height="60" as="geometry" />
        </mxCell>
        <mxCell id="T5PmmsMg059Y0qM3ibLW-13" style="edgeStyle=none;rounded=0;orthogonalLoop=1;jettySize=auto;html=1;entryX=0.5;entryY=0;entryDx=0;entryDy=0;endArrow=none;endFill=0;" edge="1" parent="1" source="T5PmmsMg059Y0qM3ibLW-5" target="T5PmmsMg059Y0qM3ibLW-12">
          <mxGeometry relative="1" as="geometry" />
        </mxCell>
        <mxCell id="T5PmmsMg059Y0qM3ibLW-5" value="&lt;div&gt;Newman row&lt;/div&gt;NPC: Zombie" style="rounded=0;whiteSpace=wrap;html=1;" vertex="1" parent="1">
          <mxGeometry x="1080" y="440" width="120" height="60" as="geometry" />
        </mxCell>
        <mxCell id="T5PmmsMg059Y0qM3ibLW-10" style="edgeStyle=orthogonalEdgeStyle;rounded=0;orthogonalLoop=1;jettySize=auto;html=1;entryX=0;entryY=0.5;entryDx=0;entryDy=0;endArrow=none;endFill=0;" edge="1" parent="1" source="T5PmmsMg059Y0qM3ibLW-7" target="T5PmmsMg059Y0qM3ibLW-5">
          <mxGeometry relative="1" as="geometry" />
        </mxCell>
        <mxCell id="T5PmmsMg059Y0qM3ibLW-7" value="&lt;div&gt;Wilson grove&lt;/div&gt;NPC: Zombie" style="rounded=0;whiteSpace=wrap;html=1;" vertex="1" parent="1">
          <mxGeometry x="760" y="440" width="120" height="60" as="geometry" />
        </mxCell>
        <mxCell id="T5PmmsMg059Y0qM3ibLW-12" value="&lt;div&gt;Motel One&lt;/div&gt;&lt;div&gt;Lock: min x Kills&lt;br&gt;&lt;/div&gt;&lt;div&gt;Meet Allies&lt;br&gt;&lt;/div&gt;" style="rounded=0;whiteSpace=wrap;html=1;" vertex="1" parent="1">
          <mxGeometry x="1080" y="540" width="120" height="60" as="geometry" />
        </mxCell>
        <mxCell id="T5PmmsMg059Y0qM3ibLW-14" value="Bathroom" style="rounded=0;whiteSpace=wrap;html=1;" vertex="1" parent="1">
          <mxGeometry x="1340" y="340" width="120" height="60" as="geometry" />
        </mxCell>
        <mxCell id="T5PmmsMg059Y0qM3ibLW-16" value="&lt;div&gt;Catacomb&lt;/div&gt;&lt;div&gt;NPC: Monk&lt;br&gt;&lt;/div&gt;Items: AK-47" style="rounded=0;whiteSpace=wrap;html=1;" vertex="1" parent="1">
          <mxGeometry x="1160" y="40" width="120" height="60" as="geometry" />
        </mxCell>
        <mxCell id="T5PmmsMg059Y0qM3ibLW-18" value="" style="rounded=0;whiteSpace=wrap;html=1;" vertex="1" parent="1">
          <mxGeometry x="1320" y="140" width="120" height="60" as="geometry" />
        </mxCell>
      </root>
    </mxGraphModel>
  </diagram>
</mxfile>
